# xmcd CD database file
#
# Track frame offsets:
#	150
#	22837
#	44005
#	65072
#	88212
#	106387
#	128127
#	144165
#	169325
#	187667
#	210420
#
# Disc length: 3037 seconds
#
# Revision: 1
# Processed by: cddbd v1.5.2PL0 Copyright (c) Steve Scherf et al.
# Submitted via: CDex 1.51
#
DISCID=940bdb0b
DTITLE=Glenn Frey - Soul Searchin'
DYEAR=1900
DGENRE=Rock
TTITLE0=Livin' Right
TTITLE1=Some Kind Of Blue
TTITLE2=True Love
TTITLE3=Can't Put Out This Fire
TTITLE4=I Did It For Your Love
TTITLE5=Let's Pretend We're Still In Love
TTITLE6=Working Man
TTITLE7=Soul Searchin'
TTITLE8=Two Hearts
TTITLE9=It's Your Life
TTITLE10=It's Cold In Here
EXTD=
EXTT0=
EXTT1=
EXTT2=
EXTT3=
EXTT4=
EXTT5=
EXTT6=
EXTT7=
EXTT8=
EXTT9=
EXTT10=
PLAYORDER=
